<?xml version="1.0" standalone="no"?>
<!DOCTYPE svg PUBLIC "-//W3C//DTD SVG 20010904//EN"
 "http://www.w3.org/TR/2001/REC-SVG-20010904/DTD/svg10.dtd">
<svg version="1.0" xmlns="http://www.w3.org/2000/svg"
 width="512.000000pt" height="512.000000pt" viewBox="0 0 512.000000 512.000000"
 preserveAspectRatio="xMidYMid meet">

<g transform="translate(0.000000,512.000000) scale(0.100000,-0.100000)"
fill="#000000" stroke="none">
<path d="M645 4850 c-220 -30 -408 -212 -445 -430 -8 -46 -10 -597 -8 -1895
l3 -1830 23 -65 c64 -175 187 -291 367 -347 57 -17 144 -18 1975 -18 1831 0
1918 1 1975 18 92 29 174 76 235 137 64 64 99 120 132 210 l23 65 0 1865 0
1865 -26 71 c-62 168 -175 277 -349 336 l-65 22 -1890 2 c-1039 1 -1917 -1
-1950 -6z m171 -374 c45 -45 48 -101 7 -146 -54 -60 -137 -55 -180 9 -27 39
-29 71 -8 111 21 42 53 60 103 60 37 0 50 -6 78 -34z m387 13 c39 -30 53 -85
34 -131 -19 -46 -56 -71 -106 -70 -68 1 -111 47 -111 117 0 29 8 45 34 71 29
29 41 34 79 34 30 0 53 -7 70 -21z m403 -13 c45 -45 48 -101 7 -146 -54 -60
-137 -55 -180 9 -27 39 -29 71 -8 111 21 42 53 60 103 60 37 0 50 -6 78 -34z
m2934 -2120 c0 -1035 -4 -1602 -10 -1637 -34 -176 -172 -316 -345 -348 -41 -8
-581 -11 -1777 -11 -1536 0 -1727 2 -1789 16 -128 29 -250 134 -300 261 l-24
58 -3 1623 -2 1622 2125 0 2125 0 0 -1584z"/>
<path d="M2305 3600 c-311 -41 -574 -232 -705 -513 -111 -236 -113 -520 -6
-751 193 -419 653 -626 1088 -490 305 95 548 363 612 676 20 99 20 267 0 366
-76 374 -391 663 -775 712 -93 11 -126 11 -214 0z m273 -110 c235 -48 445
-210 551 -423 61 -122 83 -219 84 -357 0 -171 -36 -296 -126 -438 l-41 -65
-21 69 c-35 114 -82 191 -173 284 l-84 85 -1 165 c-2 161 -3 166 -31 225 -38
76 -105 143 -181 181 -54 26 -70 29 -160 29 -87 0 -107 -3 -157 -27 -76 -35
-138 -95 -179 -170 l-34 -63 0 -170 0 -171 -53 -43 c-88 -71 -168 -190 -202
-300 l-17 -54 -26 44 c-83 141 -111 246 -111 414 0 105 4 145 22 209 88 306
340 533 650 586 83 14 195 10 290 -10z m90 -737 c-4 -99 -22 -146 -75 -199
-50 -50 -109 -76 -184 -82 -56 -4 -75 -1 -120 20 -116 53 -167 130 -176 267
l-6 81 283 0 282 0 -4 -87z m-575 -232 c23 -40 83 -86 154 -119 49 -23 71 -27
148 -27 82 0 97 3 156 32 41 21 85 53 118 88 l52 55 38 -30 c78 -63 150 -183
176 -292 25 -107 23 -117 -43 -166 -140 -105 -293 -154 -477 -154 -143 0 -237
21 -361 82 -79 40 -187 118 -208 152 -16 26 7 120 50 208 35 70 145 200 170
200 5 0 17 -13 27 -29z"/>
<path d="M949 1597 c-24 -13 -57 -43 -74 -66 l-30 -43 0 -317 0 -318 28 -40
c15 -22 50 -52 76 -67 l49 -26 1411 0 c1547 0 1449 -4 1515 58 62 59 66 78 66
390 0 233 -3 289 -16 320 -19 47 -58 88 -106 113 -36 18 -80 19 -1456 19
l-1419 0 -44 -23z m2846 -77 c24 -5 51 -21 68 -40 l27 -30 0 -281 0 -281 -34
-34 -34 -34 -1410 0 -1410 0 -31 31 -31 31 0 288 c0 286 0 289 23 315 12 15
38 30 57 35 49 11 2725 12 2775 0z"/>
<path d="M1234 1195 c-15 -23 -15 -27 0 -50 16 -24 21 -25 116 -25 104 0 130
10 130 50 0 40 -26 50 -130 50 -95 0 -100 -1 -116 -25z"/>
<path d="M1676 1204 c-9 -8 -16 -24 -16 -34 0 -39 26 -50 121 -50 104 0 129 9
129 48 0 45 -15 52 -121 52 -75 0 -101 -4 -113 -16z"/>
<path d="M2107 1202 c-22 -24 -21 -45 1 -65 28 -26 202 -24 225 1 22 24 21 45
-1 65 -28 26 -202 24 -225 -1z"/>
<path d="M2542 1208 c-19 -19 -15 -66 7 -78 11 -5 59 -10 106 -10 102 0 125 9
125 50 0 19 -7 33 -19 40 -28 14 -204 13 -219 -2z"/>
<path d="M2976 1204 c-21 -21 -20 -47 2 -67 15 -13 39 -17 115 -17 92 0 97 1
113 25 15 23 15 27 0 50 -16 24 -21 25 -116 25 -76 0 -102 -4 -114 -16z"/>
</g>
</svg>
